<svg width="24" height="24" viewBox="0 0 24 24" fill="none" xmlns="http://www.w3.org/2000/svg">
<path d="M9.33301 12.3063C9.33301 12.9192 9.45371 13.526 9.68824 14.0922C9.92276 14.6584 10.2665 15.1728 10.6998 15.6061C11.1332 16.0395 11.6476 16.3832 12.2138 16.6178C12.78 16.8523 13.3868 16.973 13.9997 16.973C14.6125 16.973 15.2193 16.8523 15.7855 16.6178C16.3517 16.3832 16.8662 16.0395 17.2995 15.6061C17.7328 15.1728 18.0766 14.6584 18.3111 14.0922C18.5456 13.526 18.6663 12.9192 18.6663 12.3063C18.6663 11.6935 18.5456 11.0866 18.3111 10.5205C18.0766 9.95427 17.7328 9.43982 17.2995 9.00648C16.8662 8.57314 16.3517 8.2294 15.7855 7.99488C15.2193 7.76036 14.6125 7.63965 13.9997 7.63965C13.3868 7.63965 12.78 7.76036 12.2138 7.99488C11.6476 8.2294 11.1332 8.57314 10.6998 9.00648C10.2665 9.43982 9.92276 9.95427 9.68824 10.5205C9.45371 11.0866 9.33301 11.6935 9.33301 12.3063V12.3063Z" stroke="#1C2635" stroke-width="2" stroke-linecap="round" stroke-linejoin="round"/>
<path d="M18.6667 6.30632L17.7022 4.37654C17.5914 4.15504 17.4212 3.96878 17.2105 3.83863C16.9998 3.70848 16.757 3.63957 16.5093 3.63965H11.4907C11.243 3.63957 11.0002 3.70848 10.7895 3.83863C10.5788 3.96878 10.4086 4.15504 10.2978 4.37654L9.33333 6.30632H3.33333C2.97971 6.30632 2.64057 6.44679 2.39052 6.69684C2.14048 6.94689 2 7.28603 2 7.63965V18.3063C2 18.6599 2.14048 18.9991 2.39052 19.2491C2.64057 19.4992 2.97971 19.6396 3.33333 19.6396H20.6667C21.0203 19.6396 21.3594 19.4992 21.6095 19.2491C21.8595 18.9991 22 18.6599 22 18.3063V7.63965C22 7.28603 21.8595 6.94689 21.6095 6.69684C21.3594 6.44679 21.0203 6.30632 20.6667 6.30632H18.6667Z" stroke="#1C2635" stroke-width="2" stroke-linecap="round" stroke-linejoin="round"/>
<path d="M5.111 8.97314C5.24286 8.97314 5.37175 9.01224 5.48138 9.0855C5.59102 9.15875 5.67646 9.26287 5.72692 9.38469C5.77738 9.50651 5.79058 9.64055 5.76486 9.76987C5.73914 9.89919 5.67564 10.018 5.58241 10.1112C5.48917 10.2045 5.37038 10.2679 5.24106 10.2937C5.11174 10.3194 4.9777 10.3062 4.85588 10.2557C4.73406 10.2053 4.62994 10.1198 4.55669 10.0102C4.48344 9.90056 4.44434 9.77167 4.44434 9.63981C4.44434 9.463 4.51457 9.29343 4.6396 9.16841C4.76462 9.04338 4.93419 8.97314 5.111 8.97314Z" fill="#1C2635" stroke="#1C2635" stroke-width="2" stroke-linecap="round" stroke-linejoin="round"/>
<path d="M6 6.30648V4.97314" stroke="#1C2635" stroke-width="2" stroke-linecap="round" stroke-linejoin="round"/>
</svg>
