<svg width="11" height="15" viewBox="0 0 11 15" fill="none" xmlns="http://www.w3.org/2000/svg">
<g clip-path="url(#clip0_434_4846)">
<path d="M6.40424 0.708029C6.65808 0.701363 6.92529 0.928029 6.94533 1.18136V14.2214C6.93197 14.528 6.67145 14.7347 6.36416 14.708L0.819742 13.2147C0.599301 13.1614 0.44566 12.9814 0.43898 12.7547V2.68136C0.44566 2.46803 0.592621 2.28803 0.799702 2.22803L6.40424 0.708029ZM5.94332 13.548V1.88803L1.44098 3.12136V12.328L5.94332 13.548Z" fill="#1C2635"/>
<path d="M9.44366 12.2079V3.2279H8.30137C8.30137 3.2279 8.16777 3.15457 8.14773 3.13457C7.76697 2.8479 7.94065 2.27457 8.39489 2.2279C8.71554 2.19457 9.59062 2.19457 9.87118 2.31457C10.1985 2.45457 10.4323 2.82123 10.4457 3.17457L10.4323 12.3946C10.3855 12.7012 10.1384 13.0079 9.85114 13.1279C9.59062 13.2346 8.66878 13.2412 8.36817 13.2079C8.02081 13.1679 7.83377 12.7412 8.01413 12.4479C8.05421 12.3879 8.24793 12.2079 8.30805 12.2079H9.45034H9.44366Z" fill="#1C2635"/>
<path d="M4.30671 6.72784C4.57391 6.67451 4.89456 6.83451 4.94132 7.11451C4.97472 7.32117 4.96804 8.11451 4.94132 8.32118C4.8478 8.86784 4.02615 8.82784 3.95267 8.32118C3.92595 8.14118 3.92595 7.25451 3.95267 7.08118C3.97939 6.94784 4.17311 6.74784 4.31339 6.72118L4.30671 6.72784Z" fill="#1C2635"/>
</g>
<defs>
<clipPath id="clip0_434_4846">
<rect width="10" height="14" fill="white" transform="translate(0.43898 0.707886)"/>
</clipPath>
</defs>
</svg>
