<svg width="24" height="24" viewBox="0 0 24 24" fill="none" xmlns="http://www.w3.org/2000/svg">
<path d="M21.0572 2.94275C20.7544 2.64125 20.3949 2.40274 19.9994 2.24098C19.6039 2.07922 19.1803 1.99743 18.753 2.00032C18.3257 2.00321 17.9032 2.09073 17.51 2.25783C17.1167 2.42493 16.7605 2.66829 16.4618 2.97386L3.57329 15.8624L2 21.9999L8.13759 20.4258L21.0261 7.53727C21.3317 7.23874 21.5752 6.88257 21.7423 6.48937C21.9095 6.09618 21.997 5.67374 21.9999 5.2465C22.0028 4.81926 21.921 4.39568 21.7592 4.00025C21.5974 3.60483 21.3588 3.2454 21.0572 2.94275V2.94275Z" stroke="#1C2635" stroke-width="2" stroke-linecap="round" stroke-linejoin="round"/>
<path d="M16.0938 3.34277L20.6572 7.90619" stroke="#1C2635" stroke-width="2" stroke-linecap="round" stroke-linejoin="round"/>
<path d="M3.57422 15.8616L8.14208 20.4214" stroke="#1C2635" stroke-width="2" stroke-linecap="round" stroke-linejoin="round"/>
</svg>
