<svg width="22" height="19" viewBox="0 0 22 19" fill="none" xmlns="http://www.w3.org/2000/svg">
<path d="M16.666 10.3065C16.666 9.82512 16.5719 9.34797 16.3877 8.9032C16.2035 8.45848 15.9331 8.05416 15.5928 7.71375C15.2524 7.37338 14.848 7.10309 14.4033 6.91882C13.9586 6.7346 13.4814 6.63957 13 6.63953C12.5185 6.63953 12.0415 6.73458 11.5967 6.91882C11.1518 7.10309 10.7477 7.37326 10.4072 7.71375C10.0667 8.05423 9.79657 8.45834 9.6123 8.9032C9.42806 9.34803 9.33301 9.82504 9.33301 10.3065C9.33305 10.7879 9.42808 11.2651 9.6123 11.7098C9.79657 12.1545 10.0669 12.5589 10.4072 12.8993C10.7476 13.2396 11.152 13.51 11.5967 13.6942C12.0414 13.8784 12.5186 13.9725 13 13.9725C13.4814 13.9725 13.9586 13.8784 14.4033 13.6942C14.8481 13.5099 15.2524 13.2397 15.5928 12.8993C15.9332 12.5589 16.2034 12.1546 16.3877 11.7098C16.5719 11.2651 16.666 10.7879 16.666 10.3065ZM18.666 10.3065C18.666 11.0504 18.52 11.7872 18.2354 12.4745C17.9506 13.162 17.533 13.7872 17.0068 14.3134C16.4806 14.8396 15.8555 15.2571 15.168 15.5419C14.4807 15.8265 13.7439 15.9725 13 15.9725C12.2559 15.9725 11.5186 15.8266 10.8311 15.5419C10.1437 15.2572 9.51929 14.8394 8.99316 14.3134C8.46697 13.7872 8.04943 13.162 7.76465 12.4745C7.47994 11.7871 7.33305 11.0505 7.33301 10.3065C7.33301 9.56236 7.47987 8.82508 7.76465 8.13757C8.04942 7.45013 8.46701 6.82584 8.99316 6.29968C9.51932 5.77353 10.1436 5.35594 10.8311 5.07117C11.5186 4.78639 12.2558 4.63953 13 4.63953C13.744 4.63957 14.4806 4.78646 15.168 5.07117C15.8555 5.35594 16.4806 5.77348 17.0068 6.29968C17.5329 6.82581 17.9506 7.4502 18.2354 8.13757C18.5201 8.82507 18.666 9.56238 18.666 10.3065Z" fill="#1C2635"/>
<path d="M20 5.63953C20 5.5512 19.9648 5.46667 19.9023 5.40417C19.8399 5.34174 19.7553 5.3066 19.667 5.30652H17.667C17.2882 5.30652 16.9418 5.09168 16.7725 4.75281L15.8076 2.8241L15.7559 2.74792C15.7352 2.72528 15.7109 2.70561 15.6846 2.68933C15.632 2.6569 15.5715 2.63953 15.5098 2.63953H10.4902C10.4285 2.63953 10.368 2.65691 10.3154 2.68933C10.2628 2.72187 10.2201 2.76872 10.1924 2.8241L9.22754 4.75281C9.05818 5.09168 8.71185 5.30652 8.33301 5.30652H2.33301C2.24472 5.3066 2.16009 5.34174 2.09766 5.40417C2.03525 5.46667 2 5.5512 2 5.63953V16.3065C2.00009 16.3948 2.03522 16.4794 2.09766 16.5419C2.16009 16.6043 2.24472 16.6394 2.33301 16.6395H19.667C19.7553 16.6394 19.8399 16.6043 19.9023 16.5419C19.9648 16.4794 19.9999 16.3948 20 16.3065V5.63953ZM22 16.3065C21.9999 16.9252 21.7539 17.5184 21.3164 17.9559C20.8789 18.3934 20.2857 18.6394 19.667 18.6395H2.33301C1.71429 18.6394 1.1211 18.3934 0.683594 17.9559C0.246086 17.5184 8.61634e-05 16.9252 0 16.3065V5.63953C7.89265e-09 5.02069 0.246009 4.42672 0.683594 3.98914C1.12107 3.55183 1.71444 3.3066 2.33301 3.30652H7.71484L8.40332 1.92957L8.48047 1.78699C8.67236 1.46177 8.94109 1.18752 9.26367 0.988159C9.63218 0.760519 10.0571 0.640509 10.4902 0.640503L15.5098 0.639526C15.9429 0.639532 16.3678 0.760519 16.7363 0.988159C17.0589 1.18752 17.3276 1.46177 17.5195 1.78699L17.5967 1.92957L18.2852 3.30652H19.667C20.2856 3.3066 20.8789 3.55183 21.3164 3.98914C21.754 4.42672 22 5.02069 22 5.63953V16.3065Z" fill="#1C2635"/>
<path d="M4.111 6.9729C4.24286 6.9729 4.37175 7.012 4.48138 7.08525C4.59102 7.15851 4.67646 7.26263 4.72692 7.38445C4.77738 7.50626 4.79058 7.64031 4.76486 7.76963C4.73914 7.89895 4.67564 8.01774 4.58241 8.11097C4.48917 8.20421 4.37038 8.2677 4.24106 8.29342C4.11174 8.31915 3.9777 8.30595 3.85588 8.25549C3.73406 8.20503 3.62994 8.11958 3.55669 8.00995C3.48344 7.90031 3.44434 7.77142 3.44434 7.63957C3.44434 7.46276 3.51457 7.29319 3.6396 7.16816C3.76462 7.04314 3.93419 6.9729 4.111 6.9729Z" fill="#1C2635"/>
<path d="M4.23438 5.97778C4.47949 5.99598 4.7177 6.06771 4.93164 6.18872L5.03711 6.25415L5.13672 6.32642C5.33064 6.47789 5.48893 6.67012 5.59961 6.88989L5.65039 7.0022L5.69336 7.11743C5.78331 7.39001 5.80236 7.6822 5.74609 7.96509C5.68175 8.28829 5.52208 8.58461 5.28906 8.81763C5.05604 9.05065 4.75971 9.21032 4.43652 9.27466C4.1133 9.33895 3.77812 9.30502 3.47363 9.17896C3.16919 9.05285 2.90871 8.83962 2.72559 8.56567C2.56538 8.32591 2.47046 8.04912 2.44922 7.76294L2.44434 7.63989L2.45215 7.47485C2.49002 7.0933 2.65911 6.73468 2.93262 6.46118C3.24518 6.14862 3.6693 5.9729 4.11133 5.9729L4.23438 5.97778ZM4.11133 7.30884L4.0459 7.31274C3.98128 7.32562 3.9216 7.35697 3.875 7.40356C3.85168 7.42688 3.83276 7.4539 3.81738 7.48267L3.78418 7.57446C3.77134 7.639 3.77763 7.70603 3.80273 7.76685C3.82793 7.82767 3.87108 7.87964 3.92578 7.91626C3.9806 7.95289 4.0454 7.9729 4.11133 7.9729C4.19961 7.97281 4.28424 7.93768 4.34668 7.87524C4.40912 7.81281 4.44425 7.72818 4.44434 7.63989C4.44434 7.57397 4.42432 7.50916 4.3877 7.45435C4.35108 7.39964 4.2991 7.35649 4.23828 7.3313C4.19785 7.3146 4.15466 7.30888 4.11133 7.30884Z" fill="#1C2635"/>
<path d="M4 4.30591V2.9729C4 2.42062 4.44772 1.9729 5 1.9729C5.55228 1.9729 6 2.42062 6 2.9729V4.30591C6 4.85819 5.55228 5.30591 5 5.30591C4.44772 5.30591 4 4.85819 4 4.30591Z" fill="#1C2635"/>
</svg>
