<svg width="20" height="23" viewBox="0 0 20 23" fill="none" xmlns="http://www.w3.org/2000/svg">
<path d="M17.2334 10.1074C17.2333 7.73182 16.5225 5.80376 15.3096 4.48047C14.1061 3.16759 12.3276 2.36046 10.001 2.36035C7.67409 2.36035 5.89497 3.1675 4.69141 4.48047C3.47851 5.80376 2.76766 7.73182 2.76758 10.1074C2.76758 12.9757 4.23553 15.3484 5.96484 17.1455C7.51489 18.7562 9.20502 19.8281 10 20.2871C10.7951 19.8278 12.4859 18.7562 14.0361 17.1455C15.7659 15.3483 17.2334 12.9756 17.2334 10.1074ZM19.2334 10.1074C19.2334 13.6939 17.3958 16.5381 15.4766 18.5322C13.794 20.2803 11.981 21.4484 11.0654 21.9824L10.7314 22.1719C10.5074 22.2954 10.2558 22.3603 10 22.3604C9.8082 22.3604 9.61862 22.3242 9.44141 22.2539L9.26855 22.1719C8.53766 21.7692 6.44523 20.5293 4.52344 18.5322C2.60454 16.5381 0.767578 13.6938 0.767578 10.1074C0.767658 7.33794 1.60088 4.89279 3.21777 3.12891C4.84427 1.35464 7.18238 0.360352 10.001 0.360352C12.8194 0.360466 15.1568 1.35475 16.7832 3.12891C18.4001 4.89279 19.2333 7.33794 19.2334 10.1074Z" fill="#1C2635"/>
<path d="M13.1172 9.59302C13.1171 8.76668 12.7883 7.97426 12.2041 7.38989C11.6197 6.80544 10.8265 6.47681 10 6.47681C9.17355 6.47687 8.38127 6.8055 7.79688 7.38989C7.21248 7.97428 6.88385 8.76657 6.88379 9.59302C6.88379 10.4196 7.21243 11.2127 7.79688 11.7971C8.38124 12.3814 9.17367 12.7101 10 12.7102C10.8265 12.7102 11.6197 12.3816 12.2041 11.7971C12.7886 11.2127 13.1172 10.4196 13.1172 9.59302ZM15.1172 9.59302C15.1172 10.95 14.5777 12.2517 13.6182 13.2112C12.6586 14.1707 11.357 14.7102 10 14.7102C8.64323 14.7101 7.34225 14.1705 6.38281 13.2112C5.42329 12.2517 4.88379 10.95 4.88379 9.59302C4.88385 8.23614 5.42335 6.93529 6.38281 5.97583C7.34228 5.01637 8.64312 4.47687 10 4.47681C11.357 4.47681 12.6586 5.01631 13.6182 5.97583C14.5775 6.93527 15.1171 8.23625 15.1172 9.59302Z" fill="#1C2635"/>
</svg>
