<svg width="24" height="24" viewBox="0 0 24 24" fill="none" xmlns="http://www.w3.org/2000/svg">
<path d="M2.98525 10.5373C2.70816 10.4591 2.46339 10.2942 2.28686 10.0668C2.11032 9.83936 2.01129 9.56134 2.0043 9.27352C1.99731 8.98569 2.08272 8.70319 2.24801 8.46745C2.4133 8.23171 2.64977 8.05513 2.92275 7.9636L21.1053 2.0335C21.2244 1.99467 21.3519 1.98949 21.4738 2.01851C21.5957 2.04754 21.7071 2.10965 21.796 2.198C21.8848 2.28635 21.9475 2.3975 21.9772 2.51921C22.0068 2.64093 22.0023 2.76847 21.9641 2.88778L16.0385 21.0794C15.9474 21.3528 15.7709 21.5898 15.5351 21.7555C15.2992 21.9211 15.0164 22.0067 14.7282 21.9996C14.4401 21.9925 14.1618 21.8931 13.9344 21.716C13.707 21.539 13.5424 21.2936 13.4648 21.016L11.7169 13.754C11.5409 13.023 10.97 12.4525 10.2389 12.2772L2.98525 10.5373Z" stroke="#1C2635" stroke-width="2" stroke-linecap="round" stroke-linejoin="round"/>
<path d="M21.796 2.19629L11.4297 12.5626" stroke="#1C2635" stroke-width="2" stroke-linecap="round" stroke-linejoin="round"/>
</svg>
