<svg width="24" height="24" viewBox="0 0 24 24" fill="none" xmlns="http://www.w3.org/2000/svg">
<path d="M17.3848 21.2308H6.61561C6.20758 21.2308 5.81627 21.0687 5.52775 20.7802C5.23924 20.4917 5.07715 20.1004 5.07715 19.6923V5.84619H18.9233V19.6923C18.9233 20.1004 18.7612 20.4917 18.4727 20.7802C18.1842 21.0687 17.7929 21.2308 17.3848 21.2308Z" stroke="#FF3939" stroke-width="2" stroke-linecap="round" stroke-linejoin="round"/>
<path d="M9.69238 16.6154V10.4615" stroke="#FF3939" stroke-width="2" stroke-linecap="round" stroke-linejoin="round"/>
<path d="M14.3076 16.6154V10.4615" stroke="#FF3939" stroke-width="2" stroke-linecap="round" stroke-linejoin="round"/>
<path d="M2 5.84619H22" stroke="#FF3939" stroke-width="2" stroke-linecap="round" stroke-linejoin="round"/>
<path d="M14.3081 2.76929H9.69276C9.28473 2.76929 8.89342 2.93137 8.6049 3.21989C8.31638 3.50841 8.1543 3.89972 8.1543 4.30775V5.84621H15.8466V4.30775C15.8466 3.89972 15.6845 3.50841 15.396 3.21989C15.1075 2.93137 14.7162 2.76929 14.3081 2.76929Z" stroke="#FF3939" stroke-width="2" stroke-linecap="round" stroke-linejoin="round"/>
</svg>
