<svg width="24" height="25" viewBox="0 0 24 25" fill="none" xmlns="http://www.w3.org/2000/svg">
<path d="M8.40645 8.39819L11.1412 2.89082C11.2208 2.73143 11.3432 2.59738 11.4948 2.50368C11.6463 2.40998 11.8209 2.36035 11.9991 2.36035C12.1772 2.36035 12.3519 2.40998 12.5034 2.50368C12.6549 2.59738 12.7774 2.73143 12.857 2.89082L15.5917 8.39819L21.7054 9.28662C21.8818 9.31107 22.0477 9.38461 22.1842 9.49884C22.3208 9.61307 22.4225 9.76339 22.4777 9.93264C22.5329 10.1019 22.5394 10.2833 22.4965 10.456C22.4535 10.6288 22.3629 10.786 22.2349 10.9098L17.8117 15.194L18.8559 21.2466C18.9896 22.0235 18.1686 22.6151 17.4665 22.2487L11.9991 19.3898L6.53065 22.2487C5.8296 22.6161 5.00855 22.0235 5.14223 21.2456L6.18644 15.1929L1.76328 10.9087C1.6359 10.7849 1.5458 10.6278 1.50324 10.4554C1.46068 10.2829 1.46735 10.1019 1.52251 9.93309C1.57766 9.76422 1.67909 9.61422 1.81525 9.50012C1.95141 9.38603 2.11684 9.31242 2.29275 9.28767L8.40645 8.39819Z" stroke="#1C2635" stroke-width="2" stroke-linecap="round" stroke-linejoin="round"/>
</svg>
