<svg width="13" height="13" viewBox="0 0 13 13" fill="none" xmlns="http://www.w3.org/2000/svg">
<path d="M11.5841 3.98718V1.80945H9.40735C9.10677 1.80945 8.8634 1.56608 8.8634 1.2655C8.8634 0.964927 9.10677 0.721558 9.40735 0.721558H12.129C12.4294 0.721813 12.673 0.965085 12.673 1.2655V3.98718C12.6727 4.28738 12.4292 4.53087 12.129 4.53113C11.8286 4.53113 11.5844 4.28754 11.5841 3.98718Z" fill="#1C2635"/>
<path d="M11.7437 0.880688C11.9562 0.668169 12.3007 0.668208 12.5132 0.880688C12.7258 1.09323 12.7258 1.43768 12.5132 1.65022L8.70364 5.45979C8.4911 5.67233 8.14665 5.67233 7.93411 5.45979C7.72163 5.24725 7.72159 4.90278 7.93411 4.69026L11.7437 0.880688Z" fill="#1C2635"/>
<path d="M0.699783 9.42908C0.699783 9.1285 0.943152 8.88513 1.24373 8.88513C1.5443 8.88513 1.78767 9.1285 1.78767 9.42908V11.6058H3.96541C4.26577 11.6061 4.50935 11.8503 4.50935 12.1508C4.5091 12.451 4.26561 12.6944 3.96541 12.6947H1.24373C0.94331 12.6947 0.700039 12.4511 0.699783 12.1508V9.42908Z" fill="#1C2635"/>
<path d="M4.66853 7.95576C4.88105 7.74324 5.22552 7.74328 5.43806 7.95576C5.6506 8.1683 5.6506 8.51275 5.43806 8.72529L1.62849 12.5349C1.41595 12.7474 1.0715 12.7474 0.85896 12.5349C0.64648 12.3223 0.64644 11.9779 0.85896 11.7653L4.66853 7.95576Z" fill="#1C2635"/>
<path d="M11.5841 9.42908C11.5841 9.1285 11.8285 8.88513 12.129 8.88513C12.4294 8.88539 12.673 9.12866 12.673 9.42908V12.1508C12.6727 12.451 12.4292 12.6944 12.129 12.6947H9.40735C9.10693 12.6947 8.86366 12.4511 8.8634 12.1508C8.8634 11.8502 9.10677 11.6058 9.40735 11.6058H11.5841V9.42908Z" fill="#1C2635"/>
<path d="M7.93411 7.95579C8.14665 7.74325 8.4911 7.74325 8.70364 7.95579L12.5132 11.7654C12.7257 11.9779 12.7257 12.3224 12.5132 12.5349C12.3007 12.7474 11.9562 12.7474 11.7437 12.5349L7.93411 8.72532C7.72157 8.51278 7.72157 8.16833 7.93411 7.95579Z" fill="#1C2635"/>
<path d="M0.699783 3.98718V1.2655C0.699783 0.964927 0.943152 0.721558 1.24373 0.721558H3.96541C4.26577 0.721813 4.50935 0.965085 4.50935 1.2655C4.50935 1.56592 4.26577 1.80919 3.96541 1.80945H1.78767V3.98718C1.78742 4.28754 1.54415 4.53113 1.24373 4.53113C0.94331 4.53113 0.700039 4.28754 0.699783 3.98718Z" fill="#1C2635"/>
<path d="M0.858959 0.880718C1.0715 0.668179 1.41595 0.668179 1.62849 0.880718L5.43806 4.69029C5.6506 4.90283 5.6506 5.24728 5.43806 5.45982C5.22552 5.67236 4.88107 5.67236 4.66853 5.45982L0.858959 1.65025C0.64642 1.43771 0.64642 1.09326 0.858959 0.880718Z" fill="#1C2635"/>
</svg>
