<svg width="16" height="17" viewBox="0 0 16 17" fill="none" xmlns="http://www.w3.org/2000/svg">
<path d="M8 1.8335V6.50016L9.33333 5.16683" stroke="#1C2635" stroke-width="1.5" stroke-linecap="round" stroke-linejoin="round"/>
<path d="M8.00033 6.49984L6.66699 5.1665" stroke="#1C2635" stroke-width="1.5" stroke-linecap="round" stroke-linejoin="round"/>
<path d="M1.32031 9.1665H4.26031C4.51365 9.1665 4.74031 9.3065 4.85365 9.53317L5.63365 11.0932C5.86031 11.5465 6.32031 11.8332 6.82698 11.8332H9.18031C9.68698 11.8332 10.147 11.5465 10.3736 11.0932L11.1536 9.53317C11.267 9.3065 11.5003 9.1665 11.747 9.1665H14.6536" stroke="#1C2635" stroke-width="1.5" stroke-linecap="round" stroke-linejoin="round"/>
<path d="M4.66634 3.25342C2.30634 3.60008 1.33301 4.98675 1.33301 7.83342V10.5001C1.33301 13.8334 2.66634 15.1668 5.99967 15.1668H9.99967C13.333 15.1668 14.6663 13.8334 14.6663 10.5001V7.83342C14.6663 4.98675 13.693 3.60008 11.333 3.25342" stroke="#1C2635" stroke-width="1.5" stroke-linecap="round" stroke-linejoin="round"/>
</svg>
