<svg width="18" height="15" viewBox="0 0 18 15" fill="none" xmlns="http://www.w3.org/2000/svg">
<path d="M4.56286 13.6946V12.0618C4.56286 11.7612 4.80623 11.5178 5.1068 11.5178C5.40738 11.5178 5.65075 11.7612 5.65075 12.0618V13.6946C5.6507 13.9951 5.40735 14.2385 5.1068 14.2385C4.80626 14.2385 4.56291 13.9951 4.56286 13.6946Z" fill="#1C2635"/>
<path d="M12.1822 13.6946V12.0618C12.1822 11.7612 12.4256 11.5178 12.7262 11.5178C13.0268 11.5178 13.2701 11.7612 13.2701 12.0618V13.6946C13.2701 13.9951 13.0267 14.2385 12.7262 14.2385C12.4256 14.2385 12.1823 13.9951 12.1822 13.6946Z" fill="#1C2635"/>
<path d="M6.19508 2.53735C6.19502 2.32093 6.10886 2.11324 5.95583 1.96021C5.80275 1.80726 5.59507 1.72095 5.37868 1.72095C5.16226 1.72101 4.95457 1.80717 4.80153 1.96021C4.64849 2.11324 4.56234 2.32093 4.56227 2.53735V6.07544C4.56213 6.37589 4.31881 6.61938 4.01833 6.61938C3.71784 6.61938 3.47452 6.37589 3.47438 6.07544V2.53735C3.47445 2.03225 3.67483 1.54784 4.032 1.19067C4.38917 0.833506 4.87357 0.633123 5.37868 0.633057C5.88387 0.633057 6.36911 0.833446 6.72633 1.19067C7.08335 1.54782 7.28388 2.03236 7.28395 2.53735C7.28395 2.83777 7.04036 3.08202 6.74001 3.08228C6.43943 3.08228 6.19508 2.83793 6.19508 2.53735Z" fill="#1C2635"/>
<path d="M13.8143 4.98694C14.1148 4.98694 14.3592 5.23031 14.3592 5.53088V8.79651C14.3591 9.097 14.1148 9.34045 13.8143 9.34045H9.46074C9.16022 9.34045 8.91689 9.097 8.91679 8.79651V5.53088C8.91679 5.23031 9.16016 4.98694 9.46074 4.98694H13.8143ZM10.0047 8.25256H13.2703V6.07483H10.0047V8.25256Z" fill="#1C2635"/>
<path d="M0.753174 8.79688V6.61914C0.753252 6.33056 0.867473 6.05367 1.07153 5.84961C1.27559 5.64555 1.55249 5.53133 1.84106 5.53125H9.46118C9.76155 5.53149 10.0051 5.77477 10.0051 6.0752C10.0051 6.37562 9.76155 6.6189 9.46118 6.61914H1.84106V8.79688C1.84119 9.51834 2.12783 10.2105 2.63794 10.7207C3.14826 11.231 3.84104 11.5176 4.56274 11.5176H13.2708C13.9923 11.5175 14.6843 11.2309 15.1946 10.7207C15.7048 10.2105 15.9913 9.51841 15.9915 8.79688V6.61914H13.8147C13.5141 6.61914 13.2708 6.37577 13.2708 6.0752C13.2708 5.77462 13.5141 5.53125 13.8147 5.53125H15.9915C16.28 5.53125 16.5569 5.64563 16.761 5.84961C16.965 6.05367 17.0802 6.33056 17.0803 6.61914V8.79688C17.0802 9.8071 16.6785 10.7759 15.9641 11.4902C15.2497 12.2046 14.281 12.6064 13.2708 12.6064H4.56274C3.55235 12.6064 2.58286 12.2047 1.86841 11.4902C1.15417 10.7759 0.753299 9.80702 0.753174 8.79688Z" fill="#1C2635"/>
</svg>
