<svg width="442" height="110" viewBox="0 0 442 110" fill="none" xmlns="http://www.w3.org/2000/svg">
<path d="M416.267 106.732V80.5605H442V106.732H416.267Z" fill="#ABDD40"/>
<path d="M387.355 106.734V83.0477H383.408V57.3148C383.408 53.2209 382.433 50.1505 380.484 48.1036C378.534 46.0567 375.415 45.0332 371.126 45.0332C368.982 45.0332 366.155 45.0819 362.646 45.1794C359.137 45.2769 355.531 45.4231 351.827 45.618C348.123 45.813 344.76 46.0079 341.738 46.2029V26.4646C343.98 26.2697 346.612 26.0747 349.633 25.8798C352.655 25.6848 355.774 25.5386 358.991 25.4411C362.207 25.3437 365.229 25.2949 368.056 25.2949C376.244 25.2949 383.115 26.4646 388.671 28.8039C394.325 31.1433 398.614 34.7011 401.538 39.4772C404.462 44.1559 405.924 50.1993 405.924 57.6072V106.734H387.355ZM361.769 108.781C356.018 108.781 350.949 107.757 346.563 105.71C342.274 103.663 338.911 100.739 336.475 96.9376C334.038 93.0386 332.819 88.4087 332.819 83.0477C332.819 77.1993 334.33 72.4231 337.352 68.7191C340.373 64.9177 344.614 62.1397 350.072 60.3852C355.531 58.5332 361.818 57.6072 368.933 57.6072H386.04V70.6199H368.787C364.693 70.6199 361.525 71.6433 359.283 73.6903C357.139 75.6397 356.067 78.3202 356.067 81.7318C356.067 84.9484 357.139 87.5802 359.283 89.6271C361.525 91.5765 364.693 92.5513 368.787 92.5513C371.419 92.5513 373.758 92.1126 375.805 91.2354C377.949 90.2607 379.704 88.6524 381.068 86.4105C382.433 84.1686 383.213 81.0495 383.408 77.0531L388.964 82.9014C388.476 88.4574 387.112 93.1361 384.87 96.9376C382.725 100.739 379.704 103.663 375.805 105.71C372.003 107.757 367.325 108.781 361.769 108.781Z" fill="#202020"/>
<path d="M318.103 107.758C310.013 107.758 303.482 106.783 298.511 104.834C293.54 102.787 289.885 99.424 287.546 94.7453C285.304 89.9691 284.183 83.5359 284.183 75.4456V4.97266H305.968V76.3229C305.968 80.1243 306.943 83.0485 308.892 85.0954C310.939 87.0449 313.815 88.0196 317.518 88.0196H329.361V107.758H318.103ZM272.047 43.7182V26.6117H329.361V43.7182H272.047Z" fill="#202020"/>
<path d="M236.716 109.218C225.311 109.218 216.392 106.879 209.959 102.2C203.526 97.5214 200.115 90.942 199.725 82.4619H220.486C220.876 84.9962 222.387 87.2868 225.019 89.3337C227.748 91.2832 231.793 92.2579 237.154 92.2579C241.248 92.2579 244.611 91.5756 247.243 90.211C249.972 88.7489 251.337 86.7019 251.337 84.0702C251.337 81.7308 250.313 79.8788 248.266 78.5142C246.219 77.0521 242.564 76.0286 237.3 75.4438L231.013 74.859C221.364 73.8842 214.102 71.2037 209.228 66.8175C204.452 62.4312 202.064 56.8265 202.064 50.0034C202.064 44.3499 203.477 39.6225 206.304 35.821C209.131 32.0196 213.03 29.1441 218.001 27.1947C223.069 25.2452 228.82 24.2705 235.254 24.2705C245.586 24.2705 253.92 26.5611 260.255 31.1423C266.591 35.6261 269.905 42.1568 270.198 50.7344H249.436C249.046 48.1026 247.681 45.9095 245.342 44.155C243.003 42.303 239.542 41.377 234.961 41.377C231.355 41.377 228.479 42.0593 226.335 43.4239C224.19 44.7886 223.118 46.6406 223.118 48.9799C223.118 51.2218 224.044 52.9276 225.896 54.0972C227.748 55.2669 230.77 56.0954 234.961 56.5828L241.248 57.1676C251.093 58.2398 258.744 60.9691 264.203 65.3554C269.661 69.7416 272.391 75.6388 272.391 83.0467C272.391 88.4077 270.929 93.0864 268.004 97.0828C265.08 100.982 260.938 104.003 255.577 106.148C250.216 108.195 243.929 109.218 236.716 109.218Z" fill="#202020"/>
<path d="M157.613 109.511C150.789 109.511 144.746 108.341 139.483 106.002C134.317 103.662 129.979 100.543 126.47 96.6443C123.058 92.6479 120.427 88.2129 118.575 83.3393C116.82 78.3682 115.943 73.2996 115.943 68.1335V65.2093C115.943 59.8483 116.82 54.731 118.575 49.8573C120.427 44.8862 123.058 40.4512 126.47 36.5522C129.882 32.6533 134.122 29.5829 139.19 27.3411C144.356 25.0017 150.205 23.832 156.735 23.832C165.313 23.832 172.526 25.7815 178.374 29.6804C184.32 33.4819 188.853 38.5017 191.972 44.74C195.091 50.8808 196.65 57.6064 196.65 64.9169V72.8122H125.739V59.5071H182.468L174.865 65.6479C174.865 60.8718 174.183 56.7779 172.818 53.3663C171.454 49.9548 169.407 47.3718 166.678 45.6172C164.046 43.7653 160.732 42.8393 156.735 42.8393C152.641 42.8393 149.181 43.7653 146.354 45.6172C143.528 47.4692 141.383 50.1985 139.921 53.805C138.459 57.314 137.728 61.6515 137.728 66.8176C137.728 71.5938 138.41 75.7851 139.775 79.3916C141.14 82.9006 143.284 85.6299 146.208 87.5794C149.132 89.5288 152.934 90.5035 157.613 90.5035C161.901 90.5035 165.41 89.675 168.14 88.018C170.869 86.3609 172.721 84.314 173.696 81.8772H195.188C194.019 87.2382 191.728 92.0144 188.317 96.2057C184.905 100.397 180.616 103.662 175.45 106.002C170.284 108.341 164.338 109.511 157.613 109.511Z" fill="#202020"/>
<path d="M0 106.733V0H39.3303L79.5379 87.287H84.5091L81.5849 89.9188V0H104.101V106.733H64.4784L24.2708 19.4459H19.2996L22.2238 16.8141V106.733H0Z" fill="#202020"/>
</svg>
