<svg width="23" height="21" viewBox="0 0 23 21" fill="none" xmlns="http://www.w3.org/2000/svg">
<path d="M21.561 13.8857V1.5957C21.561 1.43249 21.4968 1.27944 21.3882 1.16895C21.2801 1.05909 21.1373 1.00011 20.9917 1H2.13036C1.98475 1.00011 1.84193 1.05909 1.73387 1.16895C1.62521 1.27944 1.56104 1.43249 1.56102 1.5957V13.8857C1.56112 14.0492 1.62508 14.2028 1.73387 14.3135L1.02 15.0137C0.762801 14.7516 0.604442 14.4082 0.568832 14.043L0.56102 13.8857V1.5957C0.561037 1.22529 0.6875 0.86797 0.916489 0.583984L1.02098 0.467773C1.27867 0.205806 1.61654 0.043995 1.97606 0.0078125L2.13036 0H20.9917C21.4079 0.000106773 21.8068 0.168602 22.1011 0.467773C22.3954 0.767013 22.561 1.17255 22.561 1.5957V13.8857L22.5532 14.043C22.5176 14.4085 22.3586 14.7525 22.1011 15.0146C21.8437 15.2764 21.5061 15.4379 21.147 15.4746L20.9917 15.4824H10.395L4.96727 21V15.5117H5.23973L2.13036 15.4824L2.14012 14.4824L5.24852 14.5117L5.23973 15.4131V15.5117L5.24852 14.5117L5.24364 15.5117H5.96727V18.5566L9.97606 14.4824H20.9907C21.1366 14.4822 21.2799 14.4236 21.3882 14.3135C21.4698 14.2304 21.5262 14.1232 21.5493 14.0059L21.561 13.8857ZM1.73387 14.3135C1.8421 14.4236 1.98543 14.4822 2.13133 14.4824H2.14012L2.13036 15.4824C1.7142 15.4819 1.3152 15.3139 1.02098 15.0146L1.02 15.0137L1.73387 14.3135Z" fill="#ABDD40"/>
</svg>
